<?xml version="1.0" encoding="UTF-8" standalone="no"?>
<!-- Created with Inkscape (http://www.inkscape.org/) -->

<svg
   xmlns:dc="http://purl.org/dc/elements/1.1/"
   xmlns:cc="http://creativecommons.org/ns#"
   xmlns:rdf="http://www.w3.org/1999/02/22-rdf-syntax-ns#"
   xmlns:svg="http://www.w3.org/2000/svg"
   xmlns="http://www.w3.org/2000/svg"
   xmlns:sodipodi="http://sodipodi.sourceforge.net/DTD/sodipodi-0.dtd"
   xmlns:inkscape="http://www.inkscape.org/namespaces/inkscape"
   width="744.09448819"
   height="1052.3622047"
   id="svg2"
   version="1.1"
   inkscape:version="0.48.1 "
   sodipodi:docname="New document 1">
  <defs
     id="defs4" />
  <sodipodi:namedview
     id="base"
     pagecolor="#ffffff"
     bordercolor="#666666"
     borderopacity="1.0"
     inkscape:pageopacity="0.0"
     inkscape:pageshadow="2"
     inkscape:zoom="0.78886719"
     inkscape:cx="375"
     inkscape:cy="520"
     inkscape:document-units="px"
     inkscape:current-layer="layer1"
     showgrid="false"
     inkscape:window-width="1366"
     inkscape:window-height="746"
     inkscape:window-x="-8"
     inkscape:window-y="-8"
     inkscape:window-maximized="1" />
  <metadata
     id="metadata7">
    <rdf:RDF>
      <cc:Work
         rdf:about="">
        <dc:format>image/svg+xml</dc:format>
        <dc:type
           rdf:resource="http://purl.org/dc/dcmitype/StillImage" />
        <dc:title></dc:title>
      </cc:Work>
    </rdf:RDF>
  </metadata>
  <g
     inkscape:label="Layer 1"
     inkscape:groupmode="layer"
     id="layer1">
    <path
       style="fill:none;stroke:#000000;stroke-width:1px;stroke-linecap:butt;stroke-linejoin:miter;stroke-opacity:1"
       d="M 295.186,122.908 c 12.434,18.149,32.781,18.149,45.215,0l12.152-17.736 c12.434-18.149,22.109-15.005,21.5,6.986l-0.596,21.49c-0.609,21.992,15.852,33.952,36.579,26.578l20.257-7.207c20.728-7.375,26.707,0.856,13.288,18.29l-13.113,17.037c-13.419,17.434-7.132,36.784,13.971,43.001l20.624,6.076c21.103,6.217,21.103,16.391,0,22.608l-20.624,6.076c-21.103,6.217-27.39,25.567-13.971,43.001l13.113,17.037c13.419,17.434,7.439,25.664-13.287,18.289l-20.259-7.207c-20.727-7.375-37.188,4.585-36.578,26.576l0.596,21.492c0.609,21.991-9.066,25.135-21.5,6.986L340.4,374.543c-12.434-18.148-32.781-18.148-45.215,0.001l-12.152,17.736c-12.434,18.149-22.109,15.006-21.5-6.985l0.595-21.492c0.609-21.991-15.851-33.951-36.578-26.576l-20.257,7.207c-20.727,7.375-26.707-0.855-13.288-18.29l13.112-17.035c13.419-17.435,7.132-36.785-13.972-43.002l-20.623-6.076c-21.104-6.217-21.104-16.391,0-22.608l20.623-6.076c21.104-6.217,27.391-25.568,13.972-43.002l-13.112-17.036c-13.419-17.434-7.439-25.664,13.288-18.29l20.256,7.207c20.728,7.374,37.188-4.585,36.579-26.577l-0.595-21.49c-0.609-21.992,9.066-25.136,21.5-6.986L295.186,122.908z"
       id="path2985"
       inkscape:connector-curvature="0" />
  </g>
</svg>
